<svg width="256" height="256" viewBox="0 0 256 256" fill="none" xmlns="http://www.w3.org/2000/svg">
<path fill-rule="evenodd" clip-rule="evenodd" d="M178.617 120.269C178.617 136.788 170.823 147.618 158.763 153.714C156.282 141.408 152.589 110.017 152.589 110.017L128.842 100.518L105.094 110.017C103.49 125.255 101.1 144.328 98.9353 153.816C86.7603 147.739 78.8781 136.881 78.8781 120.269C78.8781 92.311 101.205 69.6465 128.748 69.6465C156.29 69.6465 178.617 92.311 178.617 120.269ZM128.747 143.258C135.305 143.258 140.621 137.942 140.621 131.384C140.621 124.826 135.305 119.51 128.747 119.51C122.189 119.51 116.873 124.826 116.873 131.384C116.873 137.942 122.189 143.258 128.747 143.258ZM86.2806 186.044H90.7485L86.5 230.5L119.354 229.147C119.288 227.891 119.251 226.608 119.251 225.364C119.251 214.218 124.609 209.502 132.111 213.575C135.97 215.718 136.613 217.647 135.97 228.15L135.953 228.461L135.953 228.464L171.493 227C171.493 227 165.507 205.027 166.741 186.044H171.215C175.303 186.044 178.617 182.73 178.617 178.642C178.617 174.778 175.657 171.568 171.802 171.302C161.856 170.616 143.057 169.454 129.332 169.422C128.952 169.398 128.748 169.386 128.748 169.386L128.668 169.421C114.903 169.426 95.7622 170.607 85.6937 171.302C81.8385 171.568 78.8783 174.778 78.8783 178.642C78.8783 182.73 82.1924 186.044 86.2806 186.044Z" fill="#C5C5C5"/>
<path d="M229.12 127.56C229.12 183.65 183.65 229.12 127.56 229.12C71.47 229.12 26 183.65 26 127.56C26 71.47 71.47 26 127.56 26C183.65 26 229.12 71.47 229.12 127.56Z" stroke="#C5C5C5" stroke-width="18"/>
</svg>
